<?xml version="1.0" standalone="no"?>
<!DOCTYPE svg PUBLIC "-//W3C//DTD SVG 20010904//EN"
 "http://www.w3.org/TR/2001/REC-SVG-20010904/DTD/svg10.dtd">
<svg version="1.0" xmlns="http://www.w3.org/2000/svg"
 width="4000.000000pt" height="2333.000000pt" viewBox="0 0 4000.000000 2333.000000"
 preserveAspectRatio="xMidYMid meet">
<metadata>
Created by potrace 1.15, written by Peter Selinger 2001-2017
</metadata>
<g transform="translate(0.000000,2333.000000) scale(0.100000,-0.100000)"
fill="#000000" stroke="none">
<path d="M14757 17703 c-4 -7 28 -9012 32 -9020 3 -8 2081 -2 2085 6 3 5 -1
1682 -9 3727 -8 2046 -15 4073 -15 4507 l0 787 -1044 0 c-575 0 -1047 -3
-1049 -7z"/>
<path d="M18815 17663 c-132 -18 -314 -91 -435 -173 -210 -143 -391 -395 -450
-630 -41 -162 -42 -395 -1 -552 78 -302 299 -569 586 -708 326 -159 712 -141
1029 47 93 56 291 245 349 334 132 204 183 393 174 644 -7 220 -56 377 -171
549 -172 258 -420 426 -709 481 -74 14 -294 19 -372 8z m383 -129 c169 -34
325 -118 459 -247 166 -159 262 -344 292 -561 21 -147 7 -319 -36 -451 -95
-297 -359 -548 -668 -637 -71 -20 -101 -23 -265 -22 -173 0 -191 2 -275 28
-323 99 -579 361 -665 681 -42 158 -37 393 12 554 93 303 356 557 664 642 150
41 322 46 482 13z"/>
<path d="M20420 16579 l0 -1090 53 3 52 3 3 513 2 512 284 0 c308 0 410 9 498
45 146 59 277 196 330 343 26 72 35 235 18 315 -39 191 -211 372 -409 431 -46
13 -115 16 -443 16 l-388 0 0 -1091z m760 970 c94 -15 178 -60 248 -133 66
-69 95 -119 117 -203 67 -256 -96 -514 -354 -563 -30 -5 -190 -10 -357 -10
l-304 0 0 460 0 460 293 0 c160 0 321 -5 357 -11z"/>
<path d="M21975 17658 c-3 -7 -4 -497 -3 -1088 l3 -1075 543 -3 542 -2 0 60 0
60 -485 0 -485 0 0 455 0 455 485 0 485 0 0 60 0 60 -485 0 -485 0 0 455 0
455 485 0 485 0 0 60 0 60 -540 0 c-423 0 -542 -3 -545 -12z"/>
<path d="M23400 16580 l0 -1090 55 0 55 0 2 982 3 982 611 -980 611 -979 57
-3 56 -3 0 1091 0 1090 -55 0 -55 0 -2 -980 -3 -980 -611 978 -611 977 -56 3
-57 3 0 -1091z"/>
<path d="M26030 16580 l0 -1090 358 0 c196 0 395 5 442 10 245 28 452 127 629
302 222 220 331 472 331 769 0 316 -107 567 -335 788 -143 138 -272 215 -447
265 -129 37 -252 46 -634 46 l-344 0 0 -1090z m920 941 c118 -30 269 -106 367
-186 438 -352 485 -1009 103 -1418 -125 -134 -263 -220 -437 -274 l-88 -27
-377 -4 -378 -3 0 971 0 972 363 -5 c331 -4 369 -6 447 -26z"/>
<path d="M28766 17638 c-18 -44 -767 -2108 -774 -2130 -4 -16 3 -18 52 -18
l57 0 17 43 c10 23 65 174 123 334 l104 293 486 0 487 0 60 -162 c33 -90 86
-235 118 -323 31 -88 62 -166 67 -172 10 -14 117 -18 116 -5 0 4 -177 493
-393 1087 l-392 1080 -58 3 c-56 3 -57 3 -70 -30z m468 -1243 l44 -120 -441
-3 c-242 -1 -441 -1 -443 1 -2 1 97 278 218 615 l222 612 178 -492 c98 -271
198 -547 222 -613z"/>
<path d="M29810 17615 l0 -55 335 0 335 0 2 -1032 3 -1033 58 -3 57 -3 0 1036
0 1035 335 0 335 0 0 55 0 55 -730 0 -730 0 0 -55z"/>
<path d="M32176 17638 c-18 -44 -767 -2108 -774 -2130 -4 -16 3 -18 52 -18
l57 0 17 43 c10 23 65 174 123 334 l104 293 486 0 487 0 60 -162 c33 -90 86
-235 118 -323 31 -88 62 -166 67 -172 10 -14 117 -18 116 -5 0 4 -177 493
-393 1087 l-392 1080 -58 3 c-56 3 -57 3 -70 -30z m468 -1243 l44 -120 -441
-3 c-242 -1 -441 -1 -443 1 -2 1 97 278 218 615 l222 612 178 -492 c98 -271
198 -547 222 -613z"/>
<path d="M10475 14970 c-3 -5 -1 -1070 5 -2367 5 -1297 10 -2710 10 -3140 l0
-783 1044 0 c575 0 1047 3 1049 8 4 6 -18 6281 -22 6290 -3 8 -2081 1 -2086
-8z"/>
<path d="M6352 13163 l-83 -4 6 -1997 c3 -1098 8 -2106 11 -2240 l6 -242 1042
2 1041 3 -3 1560 c-1 858 -5 1867 -8 2243 l-6 682 -962 -2 c-528 -1 -998 -4
-1044 -5z"/>
<path d="M18470 11770 l0 -1131 58 3 57 3 3 533 2 532 338 0 c269 0 350 3 397
15 183 47 343 191 411 372 35 91 44 248 20 343 -29 116 -71 187 -165 280 -97
97 -156 132 -267 160 -70 18 -111 20 -466 20 l-388 0 0 -1130z m849 981 c236
-73 378 -327 316 -564 -47 -181 -195 -318 -375 -347 -36 -5 -201 -10 -367 -10
l-303 0 0 470 0 470 334 0 c300 0 340 -2 395 -19z"/>
<path d="M20095 12888 c-3 -7 -4 -515 -3 -1128 l3 -1115 565 0 565 0 3 58 3
57 -505 0 -506 0 -2 1068 -3 1067 -58 3 c-40 2 -59 -1 -62 -10z"/>
<path d="M23220 12835 l0 -65 345 0 345 0 2 -1062 3 -1063 60 0 60 0 3 1062 2
1063 343 2 342 3 0 60 0 60 -752 3 -753 2 0 -65z"/>
<path d="M27345 12889 c-244 -35 -459 -150 -645 -345 -141 -147 -225 -291
-276 -476 -32 -115 -44 -361 -24 -486 62 -388 351 -738 721 -873 283 -103 625
-87 880 40 125 63 198 117 314 236 126 128 200 239 252 376 57 151 68 222 67
419 -1 155 -4 186 -27 273 -97 364 -386 673 -742 792 -143 48 -362 67 -520 44z
m380 -138 c349 -72 641 -336 748 -676 90 -286 45 -613 -120 -862 -55 -83 -182
-213 -266 -271 -184 -127 -347 -176 -577 -176 -296 2 -520 98 -727 312 -177
183 -262 390 -270 657 -6 162 12 273 67 414 69 177 244 381 418 485 87 52 241
109 332 125 100 16 297 12 395 -8z"/>
<path d="M28990 11770 l0 -1131 58 3 57 3 5 488 5 487 490 -490 490 -490 85 0
85 0 -535 535 -535 535 295 0 c326 0 362 5 480 62 88 43 213 168 257 258 51
102 66 178 61 300 -3 67 -12 125 -25 161 -59 172 -212 324 -382 381 -63 22
-84 23 -478 26 l-413 3 0 -1131z m852 980 c80 -25 143 -66 207 -136 132 -144
159 -348 70 -531 -35 -71 -135 -168 -211 -203 -93 -43 -161 -50 -495 -50
l-303 0 0 470 0 470 334 0 c304 0 340 -2 398 -20z"/>
<path d="M21741 11778 c-222 -612 -406 -1119 -409 -1125 -3 -10 13 -13 61 -13
l65 0 24 68 c14 37 70 192 124 344 l99 278 501 0 501 0 125 -342 125 -343 63
-3 63 -3 -6 28 c-4 15 -185 521 -404 1123 l-398 1095 -65 3 -65 3 -404 -1113z
m698 295 c122 -337 221 -615 221 -618 0 -8 -900 -6 -900 3 -1 20 446 1240 451
1234 4 -4 106 -282 228 -619z"/>
<path d="M24992 11768 l3 -1123 60 0 60 0 3 528 2 527 500 0 500 0 0 65 0 65
-500 0 -500 0 0 470 0 470 500 0 500 0 0 60 0 60 -565 0 -565 0 2 -1122z"/>
<path d="M30612 11768 l3 -1123 58 -3 57 -3 0 1043 0 1043 503 -503 502 -502
498 497 497 498 0 -1038 0 -1038 63 3 62 3 3 1123 2 1122 -62 0 -63 0 -500
-500 -500 -500 -500 500 -500 500 -63 0 -62 0 2 -1122z"/>
<path d="M18510 6920 l0 -1350 70 0 70 0 0 640 0 640 403 0 c454 0 492 5 625
75 241 126 382 360 382 630 0 281 -151 521 -405 645 -135 66 -174 70 -690 70
l-455 0 0 -1350z m978 1185 c153 -36 306 -161 375 -305 76 -161 75 -345 -4
-501 -40 -81 -162 -204 -240 -242 -110 -55 -130 -57 -566 -57 l-403 0 0 560 0
560 388 0 c306 0 400 -3 450 -15z"/>
<path d="M22690 6920 l0 -1350 70 0 70 0 0 587 0 588 588 -588 587 -587 98 0
c53 0 97 3 97 7 0 5 -300 308 -667 675 l-668 668 668 668 c367 367 667 670
667 675 0 4 -44 7 -97 7 l-98 0 -587 -587 -588 -588 0 588 0 587 -70 0 -70 0
0 -1350z"/>
<path d="M24585 8258 c-3 -7 -4 -614 -3 -1348 l3 -1335 70 0 70 0 0 1345 0
1345 -68 3 c-48 2 -69 -1 -72 -10z"/>
<path d="M25695 8254 c-40 -7 -111 -33 -165 -60 -79 -39 -109 -62 -180 -133
-130 -132 -188 -248 -209 -421 -27 -217 45 -427 198 -580 140 -139 265 -195
475 -211 211 -15 312 -56 427 -170 251 -250 214 -664 -78 -862 -134 -92 -130
-91 -608 -97 l-420 -5 0 -70 0 -70 410 0 c464 0 472 1 625 77 117 59 248 188
307 303 59 115 76 188 76 325 0 226 -81 400 -254 547 -128 108 -236 149 -444
168 -213 19 -295 53 -412 170 -122 121 -170 253 -160 430 11 195 123 368 295
458 117 61 112 60 562 66 l415 6 0 70 0 70 -395 2 c-301 1 -412 -2 -465 -13z"/>
<path d="M26794 8256 c-3 -7 -4 -40 -2 -72 l3 -59 413 -3 412 -2 0 -1276 0
-1275 73 3 72 3 3 1273 2 1272 410 0 410 0 0 75 0 75 -895 0 c-747 0 -896 -2
-901 -14z"/>
<path d="M31170 6920 l0 -1350 70 0 70 0 2 1211 3 1211 755 -1211 755 -1211
73 0 72 0 0 1350 0 1351 -72 -3 -73 -3 -5 -1202 -5 -1201 -751 1201 -751 1202
-71 3 -72 3 0 -1351z"/>
<path d="M21232 8233 c-5 -15 -222 -613 -482 -1328 -260 -715 -475 -1308 -478
-1317 -4 -16 4 -18 71 -18 l75 0 41 113 c23 61 90 247 149 412 l108 300 598 0
598 0 147 -400 c81 -220 150 -406 155 -413 10 -17 146 -17 146 1 0 6 -218 611
-483 1342 l-484 1330 -75 3 c-75 3 -76 2 -86 -25z m358 -944 c148 -409 268
-745 266 -746 -2 -2 -246 -2 -542 -1 l-539 3 270 747 c148 411 271 745 273
743 2 -1 124 -337 272 -746z"/>
<path d="M29712 8233 c-5 -15 -222 -613 -482 -1328 -260 -715 -475 -1308 -478
-1317 -4 -16 4 -18 71 -18 l75 0 41 113 c22 61 90 247 149 412 l108 300 598 0
598 0 147 -400 c81 -220 150 -406 154 -412 5 -9 33 -13 78 -13 49 0 69 4 69
13 0 6 -218 611 -484 1342 l-483 1330 -75 3 c-75 3 -76 2 -86 -25z m358 -944
c148 -409 268 -745 266 -746 -2 -2 -246 -2 -542 -1 l-539 3 270 747 c148 411
271 745 273 744 1 -2 124 -338 272 -747z"/>
<path d="M6330 6665 l0 -1045 5360 0 5360 0 -2 1043 -3 1042 -5357 3 -5358 2
0 -1045z"/>
</g>
</svg>
